<svg>
   <symbol id="icon-1" width="128" height="32" viewBox="0 0 128 32" fill="none" xmlns="http://www.w3.org/2000/svg">
      <path d="M0.657532 32H11.5068C16.6514 32 20.8219 27.8295 20.8219 22.6849H9.9726C4.82803 22.6849 0.657532 26.8554 0.657532 32Z" fill="#F22BB2"/>
      <path d="M1.14288 9.31507V23.0137C6.28745 23.0137 10.458 18.8432 10.458 13.6986V0C5.31338 0 1.14288 4.1705 1.14288 9.31507Z" fill="#8C30F5"/>
      <path d="M31.3425 0H20.4932C15.3486 0 11.1781 4.1705 11.1781 9.31507H22.0274C27.172 9.31507 31.3425 5.14457 31.3425 0Z" fill="#FE9A22"/>
      <path d="M31.3425 22.137V8.43835C26.1979 8.43835 22.0274 12.6089 22.0274 17.7534V31.4521C27.172 31.4521 31.3425 27.2816 31.3425 22.137Z" fill="#2EC5CE"/>
      <path d="M46.1714 20.48V7.99999H42.5143V24H51.8857V20.48H46.1714Z" fill="black"/>
      <path d="M61.5677 12.5714V13.6457C60.8134 12.7771 59.6934 12.2514 58.162 12.2514C55.1677 12.2514 52.6991 14.88 52.6991 18.2857C52.6991 21.6914 55.1677 24.32 58.162 24.32C59.6934 24.32 60.8134 23.7943 61.5677 22.9257V24H64.9962V12.5714H61.5677ZM58.8477 21.0743C57.2705 21.0743 56.1277 20 56.1277 18.2857C56.1277 16.5714 57.2705 15.4971 58.8477 15.4971C60.4248 15.4971 61.5677 16.5714 61.5677 18.2857C61.5677 20 60.4248 21.0743 58.8477 21.0743Z" fill="black"/>
      <path d="M74.2087 12.2514C72.7002 12.2514 71.5573 12.8 70.9402 13.6457V12.5714H67.5116V24H70.9402V17.76C70.9402 16.1371 71.8087 15.4057 73.0659 15.4057C74.163 15.4057 75.0545 16.0686 75.0545 17.4857V24H78.483V16.9828C78.483 13.8971 76.5173 12.2514 74.2087 12.2514Z" fill="black"/>
      <path d="M89.1346 7.99999V13.6457C88.3803 12.7771 87.2603 12.2514 85.7289 12.2514C82.7346 12.2514 80.2661 14.88 80.2661 18.2857C80.2661 21.6914 82.7346 24.32 85.7289 24.32C87.2603 24.32 88.3803 23.7943 89.1346 22.9257V24H92.5632V7.99999H89.1346ZM86.4146 21.0743C84.8375 21.0743 83.6946 20 83.6946 18.2857C83.6946 16.5714 84.8375 15.4971 86.4146 15.4971C87.9918 15.4971 89.1346 16.5714 89.1346 18.2857C89.1346 20 87.9918 21.0743 86.4146 21.0743Z" fill="black"/>
      <path d="M96.7928 11.5657C97.9128 11.5657 98.85 10.6286 98.85 9.50856C98.85 8.38856 97.9128 7.45142 96.7928 7.45142C95.6728 7.45142 94.7357 8.38856 94.7357 9.50856C94.7357 10.6286 95.6728 11.5657 96.7928 11.5657ZM95.0786 24H98.5071V12.5714H95.0786V24Z" fill="black"/>
      <path d="M107.302 10.9714V7.67999C103.507 7.45142 101.747 9.37142 101.747 12.5714H100.216V15.8628H101.747V24H105.176V15.8628H107.302V12.5714H105.176C105.176 11.2457 106.022 10.8571 107.302 10.9714Z" fill="black"/>
      <path d="M116.207 12.5714L114.059 19.5657L111.521 12.5714H107.75L112.299 23.4743C111.796 24.8686 111.041 25.3714 109.441 25.3714V28.5714C112.641 28.7314 114.676 27.2914 115.956 23.6571L119.864 12.5714H116.207Z" fill="black"/>
      <path d="M123.168 4.80005H120.078V5.59205H121.206V9.00005H122.034V5.59205H123.168V4.80005Z" fill="black"/>
      <path d="M127.74 4.80005H126.888L125.688 6.78605L124.482 4.80005H123.63V9.00005H124.458V6.28205L125.64 8.22605H125.736L126.918 6.27605V9.00005H127.74V4.80005Z" fill="black"/>
   </symbol>
   <symbol id="icon-2" width="24" height="24" viewBox="0 0 24 24" fill="none" xmlns="http://www.w3.org/2000/svg">
      <path d="M4 6H20" stroke="#111827" stroke-width="2" stroke-linecap="round" stroke-linejoin="round"/>
      <path d="M4 12H20" stroke="#111827" stroke-width="2" stroke-linecap="round" stroke-linejoin="round"/>
      <path d="M4 18H20" stroke="#111827" stroke-width="2" stroke-linecap="round" stroke-linejoin="round"/>
   </symbol>
   <symbol id="icon-3" width="135" height="40" viewBox="0 0 135 40" fill="none" xmlns="http://www.w3.org/2000/svg">
      <path fill-rule="evenodd" clip-rule="evenodd" d="M10.7566 1.72057e-06H124.249C124.655 1.72057e-06 125.067 -0.000128279 125.472 0.00187172C125.753 0.00346346 126.039 0.00766047 126.322 0.0118031C126.386 0.0127355 126.449 0.0136652 126.512 0.0145617C127.269 0.0220095 128.023 0.0811045 128.769 0.191322C129.518 0.304242 130.243 0.515569 130.921 0.818322C132.278 1.43603 133.383 2.4152 134.079 3.61812C134.419 4.2175 134.655 4.85928 134.777 5.52144C134.903 6.18324 134.973 6.85242 134.987 7.52344C134.991 7.83008 134.991 8.1377 134.991 8.44434C135 8.80664 135 9.16992 135 9.53613V30.4648C135 30.834 135 31.1953 134.991 31.5586C134.991 31.8691 134.991 32.1699 134.987 32.4805C134.973 33.1515 134.903 33.8206 134.777 34.4824C134.655 35.1449 134.42 35.7871 134.079 36.3867C133.733 36.9835 133.283 37.5282 132.746 38.001C132.213 38.4778 131.597 38.8758 130.921 39.1797C130.243 39.4833 129.518 39.6958 128.769 39.8105C128.023 39.9198 127.268 39.9789 126.512 39.9873C126.169 39.9941 125.816 39.998 125.472 39.998C125.067 40 124.655 40 124.249 40H10.7566C10.343 40 9.93419 40 9.5216 39.998C9.17621 39.998 8.83358 39.9941 8.48488 39.9873C7.72738 39.9785 6.9717 39.9194 6.22416 39.8105C5.47772 39.6966 4.75481 39.484 4.07967 39.1797C3.40371 38.876 2.78717 38.478 2.25357 38.001C1.71505 37.5301 1.26616 36.9849 0.924356 36.3867C0.581124 35.7875 0.343339 35.1453 0.219258 34.4824C0.0936522 33.8207 0.0260614 33.1514 0.0170916 32.4805C0.00993901 32.2683 0.00715699 32.0607 0.00435296 31.8514C0.0030527 31.7544 0.00174771 31.657 0 31.5586V8.44434C0.00176842 8.34604 0.00308357 8.24765 0.00439918 8.14922C0.0071877 7.94059 0.00997831 7.7318 0.0170916 7.52348C0.0260586 6.85252 0.0936495 6.18319 0.219258 5.52148C0.343683 4.85894 0.581453 4.21711 0.924356 3.61816C1.26632 3.01802 1.71514 2.47064 2.25357 1.99707C2.7892 1.52217 3.40534 1.12447 4.07967 0.818412C4.75482 0.514917 5.4778 0.303534 6.22416 0.191412C6.97157 0.081678 7.72733 0.0226035 8.48488 0.0147017C8.55727 0.0136865 8.6294 0.0126317 8.70135 0.0115795C8.97596 0.00756356 9.24792 0.00358651 9.5216 0.00200172C9.9342 1.72062e-06 10.3429 1.72057e-06 10.7566 1.72057e-06ZM8.40804 39.1173C8.74966 39.1241 9.08566 39.128 9.42998 39.128L124.35 39.13L125.576 39.128C125.912 39.128 126.259 39.1241 126.59 39.1173C127.297 39.1097 128.004 39.0551 128.702 38.9542C129.358 38.8557 129.993 38.6703 130.587 38.4043C131.173 38.1407 131.707 37.7954 132.169 37.3815C132.631 36.9758 133.018 36.5081 133.316 35.9956C133.615 35.4698 133.821 34.9064 133.927 34.3252C134.042 33.7122 134.106 33.0926 134.12 32.4713C134.124 32.1646 134.124 31.8667 134.124 31.5414C134.133 31.1839 134.133 30.8294 134.133 30.466V9.53295C134.133 9.17301 134.133 8.81601 134.124 8.44093C134.124 8.13813 134.124 7.83386 134.121 7.55061C134.107 6.91801 134.042 6.28713 133.924 5.663C133.818 5.0894 133.614 4.53335 133.32 4.01374C132.718 2.97461 131.763 2.12826 130.59 1.5933C129.995 1.32872 129.359 1.14404 128.702 1.04533C128.008 0.944474 127.306 0.890111 126.602 0.882711L125.57 0.870008H9.43053L8.41082 0.882221C7.70067 0.890008 6.99218 0.94486 6.29129 1.04631C5.6412 1.1438 5.01136 1.3272 4.42286 1.59037C3.83742 1.85582 3.30266 2.20091 2.83807 2.61305C2.37296 3.02132 1.98554 3.4935 1.69085 4.01129C1.39165 4.53452 1.18454 5.09514 1.07668 5.67374C0.960772 6.2928 0.898236 6.91875 0.889618 7.5462C0.883007 7.74938 0.873016 8.44093 0.873016 8.44093V31.5463C0.873016 31.5463 0.882396 32.2487 0.889561 32.4596C0.898562 33.0881 0.961463 33.715 1.07772 34.335C1.18538 34.912 1.39233 35.471 1.69137 35.9925C1.98715 36.5107 2.37673 36.9825 2.84466 37.3893C3.30591 37.801 3.83897 38.1443 4.42342 38.4062C5.01327 38.6702 5.6443 38.8549 6.29571 38.9542C6.9943 39.0546 7.70034 39.1091 8.40804 39.1173Z" fill="#A6A6A6"/>
      <path d="M9.43001 39.128C9.08569 39.128 8.74969 39.1241 8.40807 39.1173C7.70037 39.1091 6.99433 39.0546 6.29574 38.9542C5.64433 38.8549 5.0133 38.6702 4.42345 38.4061C3.839 38.1443 3.30594 37.801 2.84469 37.3893C2.37676 36.9825 1.98718 36.5107 1.6914 35.9925C1.39236 35.471 1.18541 34.912 1.07775 34.335C0.961494 33.715 0.898592 33.088 0.889592 32.4596C0.882427 32.2487 0.873047 31.5463 0.873047 31.5463V8.44092C0.873047 8.44092 0.883037 7.74936 0.889648 7.54619C0.898266 6.91874 0.960802 6.29278 1.07671 5.67373C1.18457 5.09513 1.39168 4.53451 1.69088 4.01128C1.98557 3.49349 2.37299 3.02131 2.8381 2.61304C3.30269 2.20089 3.83745 1.85581 4.42289 1.59036C5.01139 1.32718 5.64123 1.14378 6.29132 1.0463C6.99221 0.944847 7.7007 0.889995 8.41085 0.882208L9.43056 0.869995H125.57L126.602 0.882698C127.306 0.890099 128.008 0.944461 128.702 1.04532C129.359 1.14403 129.995 1.32871 130.59 1.59329C131.763 2.12824 132.718 2.9746 133.32 4.01372C133.614 4.53334 133.818 5.08938 133.924 5.66299C134.042 6.28712 134.107 6.918 134.121 7.55059C134.124 7.83385 134.124 8.13811 134.124 8.44092C134.133 8.816 134.133 9.173 134.133 9.53294V30.466C134.133 30.8294 134.133 31.1839 134.124 31.5414C134.124 31.8667 134.124 32.1646 134.12 32.4713C134.107 33.0926 134.042 33.7122 133.927 34.3252C133.821 34.9064 133.615 35.4697 133.316 35.9955C133.018 36.5081 132.631 36.9758 132.169 37.3815C131.707 37.7954 131.173 38.1407 130.587 38.4042C129.994 38.6703 129.358 38.8557 128.702 38.9542C128.004 39.0551 127.297 39.1097 126.59 39.1173C126.259 39.1241 125.912 39.128 125.576 39.128L124.35 39.13L9.43001 39.128Z" fill="black"/>
      <path d="M32.7973 20.3006C32.8081 19.4659 33.0298 18.6475 33.4418 17.9216C33.8538 17.1956 34.4428 16.5857 35.1539 16.1485C34.7021 15.5034 34.1062 14.9724 33.4134 14.5979C32.7205 14.2233 31.9499 14.0155 31.1627 13.9908C29.4835 13.8146 27.8555 14.9957 26.9998 14.9957C26.1275 14.9957 24.81 14.0083 23.3913 14.0375C22.4736 14.0672 21.5793 14.334 20.7954 14.8121C20.0115 15.2901 19.3649 15.9631 18.9184 16.7654C16.9844 20.1138 18.427 25.0349 20.2796 27.7415C21.2065 29.0668 22.2898 30.5473 23.7072 30.4948C25.0943 30.4372 25.6123 29.6103 27.2866 29.6103C28.9454 29.6103 29.4314 30.4948 30.8776 30.4614C32.366 30.4372 33.3038 29.1302 34.1981 27.7923C34.8641 26.8479 35.3766 25.8042 35.7166 24.6997C34.8518 24.334 34.1139 23.7218 33.5948 22.9395C33.0757 22.1572 32.7983 21.2394 32.7973 20.3006Z" fill="white"/>
      <path d="M30.0656 12.2108C30.8772 11.2366 31.277 9.98445 31.1802 8.72021C29.9403 8.85044 28.7951 9.44299 27.9726 10.3798C27.5704 10.8375 27.2624 11.3699 27.0662 11.9467C26.87 12.5235 26.7893 13.1333 26.8289 13.7412C27.449 13.7476 28.0625 13.6132 28.6232 13.3481C29.1838 13.083 29.6771 12.6942 30.0656 12.2108Z" fill="white"/>
      <path d="M50.3307 27.1397H45.5973L44.4606 30.4962H42.4557L46.9391 18.0782H49.0221L53.5055 30.4962H51.4664L50.3307 27.1397ZM46.0875 25.5909H49.8395L47.9899 20.1436H47.9381L46.0875 25.5909Z" fill="white"/>
      <path d="M63.1881 25.9698C63.1881 28.7833 61.6823 30.5909 59.4098 30.5909C58.8341 30.621 58.2616 30.4884 57.7578 30.2082C57.254 29.9281 56.8393 29.5118 56.5612 29.0069H56.5182V33.4913H54.6598V21.4424H56.4586V22.9483H56.4928C56.7838 22.4458 57.2055 22.0316 57.7131 21.7498C58.2207 21.4679 58.7953 21.329 59.3756 21.3477C61.6734 21.3477 63.1881 23.1641 63.1881 25.9698ZM61.278 25.9698C61.278 24.1368 60.3307 22.9317 58.8854 22.9317C57.4654 22.9317 56.5104 24.1622 56.5104 25.9698C56.5104 27.794 57.4654 29.0157 58.8854 29.0157C60.3307 29.0157 61.278 27.8194 61.278 25.9698Z" fill="white"/>
      <path d="M73.153 25.9698C73.153 28.7833 71.6471 30.5909 69.3746 30.5909C68.799 30.621 68.2265 30.4884 67.7227 30.2082C67.2189 29.9281 66.8042 29.5118 66.526 29.0069H66.483V33.4913H64.6246V21.4424H66.4234V22.9483H66.4576C66.7486 22.4458 67.1703 22.0316 67.6779 21.7498C68.1856 21.468 68.7601 21.329 69.3404 21.3477C71.6383 21.3477 73.153 23.1641 73.153 25.9698ZM71.2428 25.9698C71.2428 24.1368 70.2955 22.9317 68.8502 22.9317C67.4303 22.9317 66.4752 24.1622 66.4752 25.9698C66.4752 27.794 67.4303 29.0157 68.8502 29.0157C70.2955 29.0157 71.2428 27.8194 71.2428 25.9698Z" fill="white"/>
      <path d="M79.7389 27.0362C79.8766 28.2676 81.0729 29.0762 82.7076 29.0762C84.2741 29.0762 85.401 28.2676 85.401 27.1572C85.401 26.1934 84.7213 25.6162 83.1119 25.2207L81.5026 24.833C79.2223 24.2822 78.1637 23.2158 78.1637 21.4854C78.1637 19.3428 80.0309 17.8711 82.6823 17.8711C85.3063 17.8711 87.1051 19.3428 87.1656 21.4854H85.2896C85.1773 20.2461 84.1529 19.4981 82.6559 19.4981C81.1588 19.4981 80.1344 20.2549 80.1344 21.3565C80.1344 22.2344 80.7887 22.751 82.3893 23.1465L83.7574 23.4824C86.3053 24.0849 87.3639 25.1084 87.3639 26.9248C87.3639 29.248 85.5133 30.7031 82.5699 30.7031C79.816 30.7031 77.9566 29.2822 77.8365 27.0361L79.7389 27.0362Z" fill="white"/>
      <path d="M91.3746 19.2999V21.4424H93.0963V22.9141H91.3746V27.9053C91.3746 28.6807 91.7194 29.042 92.4762 29.042C92.6806 29.0385 92.8846 29.0241 93.0875 28.999V30.4619C92.7472 30.5255 92.4014 30.5543 92.0553 30.5479C90.2223 30.5479 89.5074 29.8594 89.5074 28.1035V22.9141H88.191V21.4424H89.5074V19.2999H91.3746Z" fill="white"/>
      <path d="M94.0934 25.9698C94.0934 23.1212 95.7711 21.3311 98.3874 21.3311C101.012 21.3311 102.682 23.1211 102.682 25.9698C102.682 28.8262 101.021 30.6085 98.3874 30.6085C95.7545 30.6085 94.0934 28.8262 94.0934 25.9698ZM100.789 25.9698C100.789 24.0157 99.8932 22.8624 98.3874 22.8624C96.8815 22.8624 95.987 24.0245 95.987 25.9698C95.987 27.9317 96.8815 29.0762 98.3874 29.0762C99.8932 29.0762 100.789 27.9317 100.789 25.9698Z" fill="white"/>
      <path d="M104.214 21.4424H105.987V22.9834H106.03C106.15 22.5021 106.432 22.0768 106.828 21.7789C107.225 21.481 107.712 21.3288 108.208 21.3477C108.422 21.3469 108.635 21.3702 108.844 21.417V23.1553C108.574 23.0727 108.292 23.0348 108.009 23.043C107.739 23.0321 107.47 23.0797 107.22 23.1825C106.971 23.2854 106.746 23.4412 106.562 23.6391C106.378 23.8369 106.239 24.0723 106.155 24.329C106.07 24.5856 106.042 24.8575 106.073 25.126V30.4961H104.214L104.214 21.4424Z" fill="white"/>
      <path d="M117.413 27.837C117.163 29.4805 115.562 30.6084 113.514 30.6084C110.88 30.6084 109.246 28.8438 109.246 26.0127C109.246 23.1729 110.889 21.3311 113.436 21.3311C115.941 21.3311 117.516 23.0518 117.516 25.7969V26.4336H111.122V26.5459C111.092 26.8791 111.134 27.2148 111.244 27.5307C111.354 27.8465 111.53 28.1353 111.761 28.3778C111.991 28.6204 112.27 28.8111 112.58 28.9374C112.89 29.0637 113.223 29.1227 113.557 29.1104C113.996 29.1515 114.437 29.0498 114.814 28.8204C115.191 28.591 115.483 28.246 115.648 27.837L117.413 27.837ZM111.13 25.1348H115.657C115.674 24.8352 115.628 24.5354 115.523 24.2542C115.419 23.973 115.257 23.7165 115.049 23.5007C114.84 23.2849 114.589 23.1146 114.312 23.0004C114.034 22.8861 113.736 22.8305 113.436 22.837C113.134 22.8352 112.834 22.8933 112.553 23.008C112.273 23.1228 112.019 23.2919 111.805 23.5055C111.59 23.7191 111.42 23.9731 111.305 24.2527C111.189 24.5324 111.13 24.8322 111.13 25.1348Z" fill="white"/>
      <path d="M45.8546 8.73101C46.2442 8.70305 46.6352 8.76191 46.9993 8.90334C47.3634 9.04478 47.6916 9.26526 47.9602 9.54888C48.2288 9.83251 48.4311 10.1722 48.5525 10.5435C48.6739 10.9147 48.7114 11.3083 48.6622 11.6959C48.6622 13.6021 47.632 14.6979 45.8546 14.6979H43.6993V8.73101H45.8546ZM44.6261 13.854H45.7511C46.0295 13.8707 46.3081 13.825 46.5666 13.7204C46.8252 13.6158 47.0571 13.4548 47.2456 13.2493C47.4341 13.0437 47.5744 12.7987 47.6563 12.5321C47.7381 12.2655 47.7595 11.9839 47.7189 11.708C47.7566 11.4332 47.733 11.1534 47.6499 10.8887C47.5668 10.6241 47.4262 10.3811 47.2381 10.1771C47.05 9.97321 46.8192 9.81341 46.5621 9.70917C46.305 9.60493 46.0281 9.55885 45.7511 9.57422H44.6261V13.854Z" fill="white"/>
      <path d="M49.7091 12.4444C49.6808 12.1484 49.7146 11.8499 49.8085 11.5678C49.9023 11.2857 50.0541 11.0264 50.254 10.8064C50.454 10.5864 50.6977 10.4107 50.9695 10.2904C51.2414 10.1701 51.5354 10.108 51.8326 10.108C52.1299 10.108 52.4239 10.1701 52.6957 10.2904C52.9676 10.4107 53.2113 10.5864 53.4112 10.8064C53.6112 11.0264 53.7629 11.2857 53.8568 11.5678C53.9506 11.8499 53.9845 12.1484 53.9562 12.4444C53.985 12.7406 53.9516 13.0396 53.858 13.3221C53.7644 13.6046 53.6127 13.8644 53.4127 14.0848C53.2127 14.3053 52.9688 14.4814 52.6967 14.6019C52.4246 14.7225 52.1303 14.7847 51.8326 14.7847C51.535 14.7847 51.2407 14.7225 50.9686 14.6019C50.6964 14.4814 50.4525 14.3053 50.2525 14.0848C50.0526 13.8644 49.9009 13.6046 49.8073 13.3221C49.7137 13.0396 49.6803 12.7406 49.7091 12.4444ZM53.0421 12.4444C53.0421 11.4683 52.6036 10.8975 51.8341 10.8975C51.0616 10.8975 50.6271 11.4683 50.6271 12.4444C50.6271 13.4283 51.0617 13.9947 51.8341 13.9947C52.6036 13.9946 53.0421 13.4243 53.0421 12.4444Z" fill="white"/>
      <path d="M59.6017 14.6978H58.6798L57.7491 11.3814H57.6788L56.7521 14.6978H55.839L54.5978 10.1948H55.4991L56.3058 13.6308H56.3722L57.298 10.1948H58.1505L59.0763 13.6308H59.1466L59.9493 10.1948H60.838L59.6017 14.6978Z" fill="white"/>
      <path d="M61.882 10.1948H62.7374V10.9102H62.8038C62.9165 10.6532 63.1065 10.4379 63.3474 10.2941C63.5882 10.1503 63.868 10.0852 64.1476 10.1079C64.3667 10.0914 64.5867 10.1245 64.7913 10.2046C64.9959 10.2847 65.1798 10.4098 65.3295 10.5706C65.4792 10.7315 65.5908 10.9239 65.656 11.1337C65.7212 11.3436 65.7383 11.5654 65.7062 11.7827V14.6977H64.8175V12.0059C64.8175 11.2822 64.5031 10.9224 63.8458 10.9224C63.6971 10.9154 63.5486 10.9408 63.4105 10.9966C63.2724 11.0524 63.1481 11.1374 63.046 11.2458C62.9438 11.3542 62.8664 11.4834 62.8188 11.6245C62.7713 11.7657 62.7549 11.9154 62.7706 12.0635V14.6978H61.882L61.882 10.1948Z" fill="white"/>
      <path d="M67.1222 8.43701H68.0109V14.6978H67.1222V8.43701Z" fill="white"/>
      <path d="M69.2462 12.4444C69.2179 12.1484 69.2518 11.8498 69.3457 11.5677C69.4395 11.2857 69.5913 11.0263 69.7913 10.8063C69.9912 10.5863 70.235 10.4106 70.5068 10.2903C70.7787 10.17 71.0727 10.1079 71.37 10.1079C71.6673 10.1079 71.9613 10.17 72.2332 10.2903C72.505 10.4106 72.7487 10.5863 72.9487 10.8063C73.1487 11.0263 73.3005 11.2857 73.3943 11.5677C73.4882 11.8498 73.5221 12.1484 73.4938 12.4444C73.5226 12.7406 73.4891 13.0396 73.3955 13.3221C73.3019 13.6046 73.1502 13.8644 72.9501 14.0848C72.7501 14.3052 72.5062 14.4814 72.2341 14.6019C71.962 14.7224 71.6676 14.7847 71.37 14.7847C71.0724 14.7847 70.778 14.7224 70.5059 14.6019C70.2337 14.4814 69.9898 14.3052 69.7898 14.0848C69.5898 13.8644 69.4381 13.6046 69.3445 13.3221C69.2509 13.0396 69.2174 12.7406 69.2462 12.4444ZM72.5792 12.4444C72.5792 11.4683 72.1407 10.8975 71.3712 10.8975C70.5987 10.8975 70.1642 11.4683 70.1642 12.4444C70.1642 13.4283 70.5988 13.9947 71.3712 13.9947C72.1407 13.9946 72.5792 13.4243 72.5792 12.4444Z" fill="white"/>
      <path d="M74.4293 13.4243C74.4293 12.6138 75.0328 12.1465 76.1041 12.0801L77.3239 12.0098V11.6211C77.3239 11.1455 77.0094 10.877 76.402 10.877C75.9059 10.877 75.5621 11.0591 75.4635 11.3775H74.6031C74.694 10.604 75.4215 10.1079 76.443 10.1079C77.5719 10.1079 78.2086 10.6699 78.2086 11.6211V14.6978H77.3531V14.065H77.2828C77.1401 14.292 76.9397 14.477 76.7021 14.6012C76.4645 14.7254 76.1981 14.7843 75.9303 14.772C75.7413 14.7916 75.5502 14.7715 75.3694 14.7128C75.1887 14.6541 75.0222 14.5581 74.8808 14.4312C74.7394 14.3042 74.6262 14.149 74.5484 13.9756C74.4706 13.8022 74.4301 13.6144 74.4293 13.4243ZM77.3239 13.0396V12.6631L76.2242 12.7334C75.6041 12.7749 75.3229 12.9859 75.3229 13.3828C75.3229 13.7881 75.6744 14.0239 76.1579 14.0239C76.2995 14.0383 76.4426 14.024 76.5786 13.9819C76.7146 13.9398 76.8408 13.8708 76.9495 13.7789C77.0583 13.6871 77.1475 13.5743 77.2118 13.4473C77.2761 13.3203 77.3142 13.1816 77.3239 13.0396Z" fill="white"/>
      <path d="M79.3766 12.4444C79.3766 11.0215 80.108 10.1201 81.2457 10.1201C81.5271 10.1072 81.8064 10.1746 82.051 10.3145C82.2955 10.4544 82.4951 10.661 82.6266 10.9101H82.693V8.43701H83.5817V14.6978H82.7301V13.9863H82.6598C82.5182 14.2338 82.3116 14.4378 82.0623 14.5763C81.8131 14.7148 81.5307 14.7825 81.2457 14.772C80.1002 14.772 79.3766 13.8706 79.3766 12.4444ZM80.2946 12.4444C80.2946 13.3994 80.7448 13.9741 81.4977 13.9741C82.2467 13.9741 82.7096 13.3911 82.7096 12.4483C82.7096 11.5098 82.2419 10.9185 81.4977 10.9185C80.7496 10.9185 80.2946 11.4971 80.2946 12.4444Z" fill="white"/>
      <path d="M87.2584 12.4444C87.2301 12.1484 87.264 11.8499 87.3578 11.5678C87.4516 11.2857 87.6034 11.0264 87.8033 10.8064C88.0033 10.5864 88.247 10.4107 88.5188 10.2904C88.7907 10.1701 89.0847 10.108 89.382 10.108C89.6792 10.108 89.9732 10.1701 90.2451 10.2904C90.5169 10.4107 90.7606 10.5864 90.9606 10.8064C91.1605 11.0264 91.3123 11.2857 91.4061 11.5678C91.4999 11.8499 91.5338 12.1484 91.5055 12.4444C91.5343 12.7406 91.5009 13.0396 91.4073 13.3221C91.3137 13.6046 91.162 13.8644 90.962 14.0848C90.762 14.3053 90.5182 14.4814 90.246 14.6019C89.9739 14.7225 89.6796 14.7847 89.382 14.7847C89.0843 14.7847 88.79 14.7225 88.5179 14.6019C88.2457 14.4814 88.0019 14.3053 87.8019 14.0848C87.6019 13.8644 87.4502 13.6046 87.3566 13.3221C87.263 13.0396 87.2296 12.7406 87.2584 12.4444ZM90.5914 12.4444C90.5914 11.4683 90.1529 10.8975 89.3834 10.8975C88.611 10.8975 88.1764 11.4683 88.1764 12.4444C88.1764 13.4283 88.611 13.9947 89.3834 13.9947C90.153 13.9946 90.5914 13.4243 90.5914 12.4444Z" fill="white"/>
      <path d="M92.6979 10.1948H93.5533V10.9102H93.6198C93.7324 10.6532 93.9224 10.4379 94.1633 10.2941C94.4041 10.1503 94.6839 10.0852 94.9635 10.1079C95.1826 10.0914 95.4026 10.1245 95.6072 10.2046C95.8118 10.2847 95.9957 10.4098 96.1454 10.5706C96.2951 10.7315 96.4067 10.9239 96.4719 11.1337C96.5371 11.3436 96.5542 11.5654 96.5221 11.7827V14.6977H95.6334V12.0059C95.6334 11.2822 95.319 10.9224 94.6617 10.9224C94.513 10.9154 94.3645 10.9408 94.2264 10.9966C94.0884 11.0524 93.964 11.1374 93.8619 11.2458C93.7598 11.3542 93.6823 11.4834 93.6348 11.6245C93.5872 11.7657 93.5708 11.9154 93.5865 12.0635V14.6978H92.6979V10.1948Z" fill="white"/>
      <path d="M101.544 9.07374V10.2153H102.519V10.9639H101.544V13.2793C101.544 13.751 101.738 13.9575 102.18 13.9575C102.294 13.9572 102.407 13.9503 102.519 13.937V14.6773C102.36 14.7058 102.198 14.721 102.036 14.7227C101.047 14.7227 100.654 14.375 100.654 13.5068V10.9638H99.9391V10.2153H100.654V9.07374H101.544Z" fill="white"/>
      <path d="M103.733 8.43701H104.614V10.9185H104.684C104.802 10.6591 104.998 10.4425 105.243 10.2982C105.489 10.1539 105.773 10.0888 106.057 10.1118C106.275 10.1 106.493 10.1364 106.695 10.2184C106.898 10.3004 107.079 10.4261 107.227 10.5864C107.376 10.7468 107.486 10.9378 107.552 11.146C107.618 11.3541 107.637 11.5742 107.608 11.7905V14.6978H106.718V12.0098C106.718 11.2905 106.383 10.9263 105.756 10.9263C105.603 10.9137 105.449 10.9347 105.305 10.9878C105.162 11.0408 105.031 11.1247 104.923 11.2334C104.815 11.3421 104.732 11.4732 104.68 11.6173C104.628 11.7614 104.608 11.9152 104.622 12.0679V14.6977H103.733L103.733 8.43701Z" fill="white"/>
      <path d="M112.79 13.4819C112.669 13.8935 112.407 14.2495 112.051 14.4876C111.694 14.7258 111.265 14.8309 110.839 14.7847C110.542 14.7925 110.247 14.7357 109.975 14.6182C109.702 14.5006 109.458 14.3252 109.26 14.1041C109.063 13.8829 108.915 13.6214 108.828 13.3376C108.742 13.0537 108.718 12.7544 108.758 12.4605C108.719 12.1656 108.743 11.8656 108.83 11.581C108.916 11.2963 109.063 11.0335 109.26 10.8105C109.457 10.5874 109.699 10.4092 109.971 10.288C110.243 10.1668 110.537 10.1054 110.835 10.1079C112.088 10.1079 112.843 10.9639 112.843 12.3779V12.688H109.664V12.7378C109.65 12.9031 109.671 13.0694 109.725 13.2261C109.779 13.3829 109.865 13.5266 109.978 13.6481C110.091 13.7695 110.228 13.866 110.38 13.9314C110.533 13.9968 110.697 14.0297 110.863 14.0278C111.075 14.0533 111.291 14.0151 111.482 13.9178C111.672 13.8206 111.83 13.6689 111.934 13.4819L112.79 13.4819ZM109.664 12.0308H111.938C111.949 11.8796 111.929 11.7278 111.878 11.5851C111.827 11.4424 111.747 11.3119 111.642 11.2021C111.538 11.0922 111.412 11.0054 111.272 10.9472C111.132 10.8891 110.981 10.8608 110.83 10.8643C110.676 10.8623 110.523 10.8912 110.381 10.9491C110.239 11.0071 110.109 11.0929 110.001 11.2017C109.892 11.3104 109.806 11.4397 109.748 11.5821C109.69 11.7245 109.662 11.8771 109.664 12.0308Z" fill="white"/>
   </symbol>
   <symbol id="icon-4" width="90" height="28" viewBox="0 0 90 28" fill="none" xmlns="http://www.w3.org/2000/svg">
      <g clip-path="url(#clip0_2179_1365)">
      <path d="M25.7996 19.8443C25.6584 19.5031 25.5261 19.1443 25.3849 18.8381L24.732 17.3768L24.7055 17.3506C22.7643 13.1506 20.6908 8.88059 18.4937 4.68059L18.4055 4.50559C18.1849 4.09434 17.9643 3.63934 17.7349 3.21934C17.4525 2.72059 17.179 2.18684 16.729 1.67934C16.2904 1.14833 15.7383 0.720506 15.1127 0.426739C14.4871 0.132972 13.8036 -0.0194092 13.1114 -0.0194092C12.4192 -0.0194092 11.7356 0.132972 11.11 0.426739C10.4844 0.720506 9.93235 1.14833 9.49372 1.67934C9.07901 2.18684 8.77019 2.72059 8.48783 3.21934C8.26724 3.67434 8.04666 4.12059 7.81724 4.53184L7.72901 4.70684C5.56725 8.90684 3.45842 13.1768 1.51724 17.3768L1.4643 17.4293C1.27019 17.8843 1.04077 18.3568 0.820186 18.8643C0.679009 19.1706 0.537833 19.5031 0.396656 19.8706C0.0155087 20.8329 -0.106204 21.8771 0.0435143 22.9003C0.193232 23.9234 0.609213 24.8903 1.25046 25.7054C1.89171 26.5206 2.73609 27.1561 3.70038 27.5491C4.66468 27.9421 5.71561 28.0792 6.7496 27.9468C7.74089 27.8174 8.69543 27.49 9.55548 26.9843C10.7025 26.3456 11.8055 25.4181 13.0408 24.0793C14.2761 25.4181 15.4055 26.3456 16.5261 26.9931C17.6037 27.6203 18.824 27.9665 20.0731 27.9993C21.5196 28.0053 22.9194 27.4921 24.0141 26.5545C25.1088 25.6168 25.8245 24.3181 26.029 22.8981C26.2653 21.8776 26.1854 20.8102 25.7996 19.8356V19.8443ZM13.129 21.2968C11.6114 19.3718 10.6231 17.6043 10.2878 16.0906C10.1489 15.5297 10.119 14.9476 10.1996 14.3756C10.2614 13.9293 10.429 13.5356 10.6584 13.2031C11.1878 12.4418 12.1143 11.9693 13.129 11.9693C13.6109 11.9547 14.0889 12.059 14.5201 12.2728C14.9513 12.4866 15.3222 12.8033 15.5996 13.1943C15.829 13.5443 15.9967 13.9293 16.0496 14.3756C16.1378 14.8831 16.1025 15.4693 15.9614 16.0906C15.6261 17.5781 14.6378 19.3631 13.129 21.2968ZM24.3702 22.5918C24.2699 23.3128 23.9809 23.9951 23.532 24.5708C23.083 25.1465 22.4898 25.5955 21.8114 25.8731C21.1408 26.1531 20.3996 26.2318 19.6761 26.1531C18.9702 26.0656 18.2643 25.8381 17.5408 25.4181C16.3395 24.6818 15.2592 23.767 14.3378 22.7056C16.1908 20.4306 17.3114 18.3568 17.7349 16.5106C17.9378 15.6356 17.9643 14.8481 17.8761 14.1218C17.7659 13.4335 17.507 12.7768 17.1172 12.1968C16.6722 11.5679 16.0781 11.0571 15.3873 10.7092C14.6965 10.3614 13.9301 10.1871 13.1555 10.2018C11.5231 10.2018 10.0672 10.9543 9.18489 12.1881C8.78769 12.7666 8.53099 13.4285 8.43489 14.1218C8.32019 14.8568 8.34666 15.6706 8.57607 16.5106C8.9996 18.3568 10.1467 20.4568 11.9731 22.7231C11.0674 23.8047 9.98462 24.7276 8.77019 25.4531C8.03783 25.8731 7.34077 26.0918 6.63489 26.1793C5.53714 26.3188 4.42826 26.0229 3.54927 25.3561C2.67028 24.6892 2.09223 23.7053 1.94077 22.6181C1.85254 21.9181 1.9143 21.2181 2.19666 20.4306C2.28489 20.1506 2.41724 19.8706 2.55842 19.5381C2.75254 19.0831 2.98195 18.6106 3.20254 18.1381L3.23783 18.0768C5.14372 13.9031 7.22607 9.64184 9.38783 5.46809L9.47607 5.29309C9.69666 4.87309 9.91724 4.42684 10.1467 4.00684C10.3761 3.56059 10.6231 3.13184 10.9408 2.78184C11.2157 2.45636 11.5593 2.1946 11.9473 2.01501C12.3352 1.83541 12.7582 1.74233 13.1864 1.74233C13.6145 1.74233 14.0375 1.83541 14.4255 2.01501C14.8134 2.1946 15.157 2.45636 15.432 2.78184C15.7408 3.13184 15.9967 3.56059 16.2261 4.00684C16.4467 4.42684 16.6672 4.88184 16.8967 5.29309L16.9849 5.46809C19.1378 9.64184 21.2202 13.9031 23.1614 18.0768L23.1878 18.1031C23.4172 18.5581 23.6114 19.0656 23.832 19.5031C23.9731 19.8443 24.1143 20.1156 24.2025 20.4043C24.3702 21.1918 24.4584 21.8918 24.3702 22.5918ZM36.6525 21.1043C35.9877 21.114 35.3291 20.9751 34.7258 20.6979C34.1224 20.4207 33.5897 20.0123 33.1672 19.5031C32.2179 18.4181 31.714 17.019 31.7555 15.5831C31.741 14.1159 32.2611 12.6928 33.2202 11.5756C33.6638 11.0599 34.2161 10.6469 34.8381 10.3657C35.4601 10.0845 36.1366 9.94197 36.8202 9.94809C37.4634 9.93063 38.1004 10.0757 38.6716 10.3696C39.2427 10.6634 39.729 11.0965 40.0849 11.6281L40.1731 10.2543H42.7496V20.8243H40.1643L40.0761 19.2843C39.7092 19.8519 39.202 20.3171 38.6028 20.6356C38.0037 20.9541 37.3323 21.1155 36.6525 21.1043ZM37.3231 18.5843C37.8349 18.5843 38.2849 18.4443 38.7084 18.1906C39.0967 17.9106 39.4143 17.5431 39.6614 17.0968C39.882 16.6506 39.9967 16.1168 39.9967 15.5218C40.0311 15.0051 39.9296 14.4883 39.7023 14.022C39.4749 13.5558 39.1294 13.156 38.6996 12.8618C38.2866 12.6067 37.8097 12.4714 37.3231 12.4714C36.8365 12.4714 36.3597 12.6067 35.9467 12.8618C35.5584 13.1418 35.2408 13.5093 34.9937 13.9556C34.7604 14.4477 34.6456 14.9869 34.6584 15.5306C34.624 16.0474 34.7255 16.5642 34.9528 17.0304C35.1802 17.4967 35.5257 17.8964 35.9555 18.1906C36.3702 18.4443 36.8202 18.5843 37.3231 18.5843ZM47.1614 7.40184C47.1614 7.70809 47.1084 7.98809 46.9672 8.21559C46.8261 8.43434 46.632 8.63559 46.3761 8.77559C46.1202 8.91559 45.8467 8.96809 45.5643 8.96809C45.2819 8.96809 44.9996 8.91559 44.7437 8.77559C44.5017 8.64199 44.2982 8.44921 44.1525 8.21559C44.0159 7.96633 43.9489 7.6854 43.9584 7.40184C43.9584 7.08684 44.0202 6.80684 44.1525 6.58809C44.2937 6.32559 44.4967 6.16809 44.7437 6.02809C44.9996 5.88809 45.2731 5.82684 45.5643 5.82684C45.8452 5.82042 46.1229 5.88639 46.3704 6.01829C46.6178 6.15019 46.8265 6.3435 46.9761 6.57934C47.1045 6.83445 47.1681 7.1168 47.1614 7.40184ZM44.1614 20.7893V10.2368H46.9672V20.8068H44.1525L44.1614 20.7893ZM54.4672 13.0018V13.0368C54.3349 12.9756 54.1584 12.9493 54.0261 12.9231C53.8496 12.8881 53.7084 12.8881 53.5408 12.8881C52.7555 12.8881 52.1643 13.1156 51.7761 13.5881C51.3525 14.0693 51.1584 14.7431 51.1584 15.6093V20.7981H48.3437V10.2281H50.929L51.0172 11.8293C51.2996 11.2693 51.6349 10.8493 52.1114 10.5343C52.5853 10.2283 53.1433 10.0754 53.7084 10.0968C53.9114 10.0968 54.1055 10.1143 54.2731 10.1493C54.3614 10.1756 54.4143 10.1756 54.4672 10.2018V13.0018ZM55.5967 20.7893V5.89684H58.4025V11.5843C58.7996 11.0768 59.2496 10.6831 59.8143 10.3768C60.7083 9.94217 61.7239 9.81887 62.6972 10.0268C63.6706 10.2348 64.5448 10.7619 65.179 11.5231C66.1305 12.6104 66.6345 14.0129 66.5908 15.4518C66.6053 16.919 66.0852 18.3421 65.1261 19.4593C64.6824 19.975 64.1302 20.388 63.5082 20.6692C62.8862 20.9504 62.2096 21.093 61.5261 21.0868C60.8829 21.1043 60.2458 20.9593 59.6747 20.6654C59.1036 20.3715 58.6172 19.9384 58.2614 19.4068L58.1731 20.7806L55.5967 20.8068V20.7893ZM61.0231 18.5843C61.5261 18.5843 61.9761 18.4443 62.3996 18.1906C62.7878 17.9106 63.1055 17.5431 63.3525 17.0968C63.582 16.6506 63.6878 16.1168 63.6878 15.5218C63.6878 14.9356 63.582 14.4018 63.3525 13.9556C63.1208 13.5253 62.7953 13.1516 62.3996 12.8618C61.9866 12.6067 61.5097 12.4714 61.0231 12.4714C60.5365 12.4714 60.0597 12.6067 59.6467 12.8618C59.2496 13.1418 58.9408 13.5093 58.6849 13.9556C58.4516 14.4477 58.3368 14.9869 58.3496 15.5306C58.3152 16.0474 58.4166 16.5642 58.644 17.0304C58.8713 17.4967 59.2168 17.8964 59.6467 18.1906C60.0614 18.4443 60.5114 18.5843 61.0231 18.5843ZM67.6496 20.7981V10.2281H70.2349L70.3231 11.6018C70.648 11.0753 71.1089 10.6443 71.658 10.3536C72.2072 10.0628 72.8247 9.92283 73.4467 9.94809C74.1579 9.93591 74.857 10.1319 75.4565 10.5117C76.056 10.8914 76.5293 11.438 76.8172 12.0831C77.1261 12.7481 77.2937 13.5706 77.2937 14.4893V20.8243H74.479V14.8568C74.479 14.1218 74.3114 13.5443 73.9761 13.1156C73.6408 12.6956 73.182 12.4681 72.5996 12.4681C72.1761 12.4681 71.8055 12.5556 71.479 12.7481C71.1702 12.9493 70.9143 13.2031 70.7202 13.5618C70.5239 13.9245 70.4266 14.3317 70.4378 14.7431V20.7981H67.6496ZM78.6967 20.7981V5.88809H81.5114V11.5756C81.8926 11.0653 82.3886 10.6501 82.9599 10.363C83.5312 10.0759 84.1621 9.92489 84.8025 9.92184C85.4674 9.91219 86.126 10.0511 86.7293 10.3283C87.3327 10.6055 87.8653 11.0139 88.2878 11.5231C89.2325 12.6103 89.7329 14.0086 89.6908 15.4431C89.7061 16.9104 89.1859 18.3338 88.2261 19.4506C87.7824 19.9663 87.2302 20.3793 86.6082 20.6605C85.9862 20.9417 85.3096 21.0842 84.6261 21.0781C83.9829 21.0955 83.3458 20.9505 82.7747 20.6566C82.2036 20.3627 81.7172 19.9297 81.3614 19.3981L81.282 20.7718L78.6967 20.7981ZM84.1496 18.5843C84.6614 18.5843 85.1114 18.4443 85.5261 18.1906C85.9231 17.9106 86.2319 17.5431 86.4878 17.0968C86.7084 16.6506 86.8231 16.1168 86.8231 15.5218C86.8575 15.0051 86.7561 14.4883 86.5287 14.022C86.3014 13.5558 85.9559 13.156 85.5261 12.8618C85.1131 12.6067 84.6362 12.4714 84.1496 12.4714C83.663 12.4714 83.1861 12.6067 82.7731 12.8618C82.3849 13.1418 82.0673 13.5093 81.8202 13.9556C81.5739 14.4433 81.4584 14.9858 81.4849 15.5306C81.4505 16.0474 81.5519 16.5642 81.7793 17.0304C82.0066 17.4967 82.3521 17.8964 82.782 18.1906C83.1967 18.4443 83.6202 18.5843 84.1496 18.5843Z" fill="#FF385C"/>
      </g>
      <defs>
      <clipPath id="clip0_2179_1365">
      <rect width="90" height="28" fill="white"/>
      </clipPath>
      </defs>
   </symbol>
   <symbol id="icon-5" width="86" height="24" viewBox="0 0 86 24" fill="none" xmlns="http://www.w3.org/2000/svg">
      <g clip-path="url(#clip0_2179_1367)">
      <path d="M9.31334 3.97272V10.7425H2.99819V3.97272H0V20.1328H2.99819V13.5828H9.31334V20.1328H12.3115V3.97272H9.31334Z" fill="#33475B"/>
      <path d="M21.9069 14.909C21.9069 15.5567 21.6455 16.1778 21.1804 16.6357C20.7152 17.0937 20.0843 17.351 19.4265 17.351C18.7687 17.351 18.1378 17.0937 17.6726 16.6357C17.2074 16.1778 16.9461 15.5567 16.9461 14.909V7.98743H14.1022V14.909C14.1022 16.2979 14.6626 17.6299 15.6601 18.612C16.6577 19.5941 18.0106 20.1458 19.4214 20.1458C20.8321 20.1458 22.185 19.5941 23.1826 18.612C24.1801 17.6299 24.7405 16.2979 24.7405 14.909V7.98743H21.9069V14.909Z" fill="#33475B"/>
      <path d="M42.9781 8.70041C42.9781 7.28167 43.9315 6.83189 44.9759 6.83189C45.8176 6.83189 46.9297 7.46244 47.6568 8.22749L49.5195 6.06684C48.5896 4.82888 46.7034 3.97272 45.1595 3.97272C42.0747 3.97272 39.8433 5.75157 39.8433 8.70041C39.8433 14.1715 46.6359 12.436 46.6359 15.4976C46.6359 16.442 45.7045 17.2765 44.6381 17.2765C42.9561 17.2765 42.4111 16.4666 41.6384 15.6104L39.5715 17.7263C40.8936 19.3243 42.5242 20.1357 44.4779 20.1357C47.4086 20.1357 49.7663 18.3351 49.7663 15.5208C49.7663 9.44666 42.9737 11.334 42.9737 8.70041" fill="#33475B"/>
      <path d="M84.9995 17.5512C83.319 17.5512 82.8416 16.8354 82.8416 15.7391V10.8871H85.4535V8.4285H82.8416V5.18463L79.958 6.45875V16.3422C79.958 18.8702 81.7296 20.1443 84.1593 20.1443C84.5404 20.1512 84.9212 20.1211 85.2963 20.0547L85.9999 17.505C85.6826 17.5267 85.3183 17.5484 84.9995 17.5484" fill="#33475B"/>
      <path d="M32.7318 8.06844C31.323 8.06844 30.3403 8.47048 29.3899 9.38883V4.06964H26.5415V13.9285C26.5415 17.6193 29.2518 20.1473 32.297 20.1473C35.6756 20.1473 38.6474 17.5744 38.6474 14.1093C38.6474 10.6875 35.9121 8.06988 32.7318 8.06988V8.06844ZM32.7142 17.3257C32.075 17.3257 31.4502 17.1391 30.9187 16.7895C30.3872 16.4399 29.973 15.943 29.7284 15.3616C29.4838 14.7802 29.4198 14.1405 29.5445 13.5233C29.6692 12.9061 29.977 12.3392 30.429 11.8942C30.8809 11.4492 31.4568 11.1462 32.0837 11.0235C32.7106 10.9007 33.3604 10.9637 33.9509 11.2045C34.5414 11.4453 35.0462 11.8531 35.4013 12.3764C35.7564 12.8996 35.9459 13.5147 35.9459 14.144C35.9459 14.9878 35.6054 15.7971 34.9994 16.3938C34.3933 16.9905 33.5713 17.3257 32.7142 17.3257Z" fill="#33475B"/>
      <path d="M63.6597 13.9618C63.6597 10.4909 60.6938 7.92383 57.3093 7.92383C54.2641 7.92383 51.5538 10.4518 51.5538 14.1426V24.0072H54.4022V18.6808C55.3511 19.5977 56.3354 20.0012 57.7426 20.0012C60.923 20.0012 63.6582 17.385 63.6582 13.9618H63.6597ZM60.9626 13.9271C60.9626 14.5564 60.7731 15.1715 60.418 15.6947C60.0629 16.2179 59.5582 16.6258 58.9676 16.8666C58.3771 17.1074 57.7273 17.1704 57.1004 17.0476C56.4735 16.9249 55.8977 16.6218 55.4457 16.1769C54.9937 15.7319 54.6859 15.165 54.5612 14.5478C54.4365 13.9306 54.5005 13.2909 54.7451 12.7095C54.9897 12.1281 55.404 11.6312 55.9354 11.2816C56.4669 10.932 57.0917 10.7454 57.7309 10.7454C58.588 10.7454 59.41 11.0806 60.0161 11.6773C60.6222 12.274 60.9626 13.0832 60.9626 13.9271Z" fill="#33475B"/>
      <path d="M72.8615 7.78787V4.97063C73.2397 4.79667 73.5599 4.52054 73.7848 4.17438C74.0098 3.82823 74.1302 3.42628 74.1322 3.01535V2.95027C74.1322 2.37493 73.9 1.82315 73.4868 1.41632C73.0736 1.00949 72.5131 0.780939 71.9287 0.780939H71.8626C71.2782 0.780939 70.7177 1.00949 70.3045 1.41632C69.8913 1.82315 69.6591 2.37493 69.6591 2.95027V3.01535C69.6611 3.42628 69.7815 3.82823 70.0065 4.17438C70.2314 4.52054 70.5516 4.79667 70.9298 4.97063V7.78787C69.8429 7.95157 68.8192 8.3951 67.9625 9.07356L60.1152 3.05584C60.1707 2.8574 60.2003 2.6528 60.2033 2.44698C60.2042 1.96352 60.0594 1.49067 59.7873 1.08823C59.5151 0.685791 59.1279 0.371847 58.6745 0.186108C58.2211 0.000369021 57.722 -0.0488204 57.2402 0.0447614C56.7584 0.138343 56.3156 0.370492 55.9679 0.711844C55.6201 1.0532 55.383 1.48842 55.2865 1.96245C55.1901 2.43649 55.2386 2.92805 55.4259 3.37496C55.6132 3.82186 55.9309 4.20404 56.3389 4.47314C56.7469 4.74224 57.2267 4.88618 57.7178 4.88675C58.1472 4.88486 58.5686 4.77217 58.94 4.55991L66.6683 10.4793C65.9739 11.5118 65.6116 12.7264 65.6286 13.9647C65.6456 15.203 66.0412 16.4075 66.7638 17.4211L64.4134 19.7351C64.2233 19.6753 64.0253 19.6436 63.8258 19.6411C63.4227 19.6414 63.0287 19.7593 62.6936 19.98C62.3585 20.2007 62.0974 20.5142 61.9433 20.8809C61.7891 21.2477 61.7489 21.6511 61.8276 22.0404C61.9063 22.4296 62.1005 22.7872 62.3855 23.0678C62.6706 23.3485 63.0338 23.5396 63.4291 23.6171C63.8245 23.6946 64.2344 23.655 64.6069 23.5033C64.9794 23.3515 65.2978 23.0944 65.522 22.7646C65.7461 22.4347 65.8659 22.0468 65.8662 21.6499C65.8637 21.4534 65.8315 21.2585 65.7707 21.0714L68.0961 18.782C68.8544 19.3565 69.7361 19.7525 70.6739 19.9397C71.6116 20.1268 72.5803 20.1003 73.506 19.8619C74.4316 19.6236 75.2896 19.1799 76.0142 18.5647C76.7388 17.9495 77.3107 17.1793 77.6862 16.3129C78.0618 15.4465 78.2309 14.507 78.1807 13.5664C78.1305 12.6257 77.8623 11.7088 77.3966 10.886C76.9309 10.0631 76.2801 9.35614 75.494 8.81913C74.7079 8.28212 73.8074 7.92936 72.8615 7.78787ZM71.8979 17.0523C71.2618 17.0518 70.6401 16.8656 70.1115 16.5173C69.5829 16.169 69.171 15.6742 68.9279 15.0955C68.6848 14.5168 68.6215 13.8801 68.7458 13.266C68.8701 12.6518 69.1766 12.0878 69.6265 11.6451C70.0764 11.2023 70.6495 10.9009 71.2734 10.7787C71.8972 10.6566 72.5439 10.7193 73.1316 10.9589C73.7193 11.1984 74.2216 11.6042 74.5752 12.1248C74.9287 12.6454 75.1176 13.2574 75.1179 13.8837C75.1179 14.7237 74.7789 15.5293 74.1756 16.1232C73.5723 16.7172 72.754 17.0509 71.9008 17.0509" fill="#FF7A59"/>
      </g>
      <defs>
      <clipPath id="clip0_2179_1367">
      <rect width="86" height="24" fill="white"/>
      </clipPath>
      </defs>
   </symbol>
   <symbol id="icon-6" width="84" height="28" viewBox="0 0 84 28" fill="none" xmlns="http://www.w3.org/2000/svg">
      <path d="M35.7463 14.3591C35.7463 18.2457 32.6612 21.1096 28.875 21.1096C25.0888 21.1096 22.0037 18.2457 22.0037 14.3591C22.0037 10.4452 25.0888 7.6087 28.875 7.6087C32.6612 7.6087 35.7463 10.4452 35.7463 14.3591ZM32.7384 14.3591C32.7384 11.9304 30.9503 10.2687 28.875 10.2687C26.7997 10.2687 25.0116 11.9304 25.0116 14.3591C25.0116 16.7635 26.7997 18.4496 28.875 18.4496C30.9503 18.4496 32.7384 16.7604 32.7384 14.3591Z" fill="#EA4335"/>
      <path d="M50.5698 14.3591C50.5698 18.2457 47.4846 21.1096 43.6985 21.1096C39.9123 21.1096 36.8271 18.2457 36.8271 14.3591C36.8271 10.4483 39.9123 7.6087 43.6985 7.6087C47.4846 7.6087 50.5698 10.4452 50.5698 14.3591ZM47.5618 14.3591C47.5618 11.9304 45.7738 10.2687 43.6985 10.2687C41.6232 10.2687 39.8351 11.9304 39.8351 14.3591C39.8351 16.7635 41.6232 18.4496 43.6985 18.4496C45.7738 18.4496 47.5618 16.7604 47.5618 14.3591Z" fill="#FBBC05"/>
      <path d="M64.7757 8.01653V20.1357C64.7757 25.1209 61.7925 27.157 58.2657 27.157C54.9459 27.157 52.9478 24.9687 52.1942 23.1791L54.8131 22.1048C55.2794 23.2035 56.422 24.5 58.2626 24.5C60.5201 24.5 61.9191 23.1274 61.9191 20.5435V19.5726H61.8141C61.1409 20.3913 59.8438 21.1065 58.207 21.1065C54.7822 21.1065 51.6445 18.1665 51.6445 14.3835C51.6445 10.5731 54.7822 7.6087 58.207 7.6087C59.8407 7.6087 61.1378 8.32392 61.8141 9.11827H61.9191V8.01957H64.7757V8.01653ZM62.1322 14.3835C62.1322 12.0065 60.5232 10.2687 58.4757 10.2687C56.4004 10.2687 54.6617 12.0065 54.6617 14.3835C54.6617 16.7361 56.4004 18.4496 58.4757 18.4496C60.5232 18.4496 62.1322 16.7361 62.1322 14.3835Z" fill="#4285F4"/>
      <path d="M69.4853 0.913025V20.6956H66.5515V0.913025H69.4853Z" fill="#34A853"/>
      <path d="M80.9181 16.5809L83.2528 18.1148C82.4993 19.2135 80.6834 21.1065 77.5457 21.1065C73.6546 21.1065 70.7485 18.1422 70.7485 14.3561C70.7485 10.3417 73.6793 7.60565 77.2091 7.60565C80.7637 7.60565 82.5024 10.3935 83.0706 11.9L83.3825 12.667L74.2259 16.4043C74.9269 17.7587 76.0171 18.4496 77.5457 18.4496C79.0775 18.4496 80.1399 17.707 80.9181 16.5809ZM73.7318 14.1522L79.8527 11.6474C79.516 10.8043 78.5031 10.217 77.311 10.217C75.7824 10.217 73.6546 11.547 73.7318 14.1522Z" fill="#EA4335"/>
      <path d="M10.8985 12.6031V9.73915H20.6913C20.7871 10.2383 20.8365 10.8287 20.8365 11.4678C20.8365 13.6165 20.2404 16.2735 18.3196 18.1665C16.4512 20.0839 14.064 21.1065 10.9016 21.1065C5.04015 21.1065 0.111328 16.4013 0.111328 10.6248C0.111328 4.84828 5.04015 0.143066 10.9016 0.143066C14.1443 0.143066 16.4543 1.39698 18.1899 3.03133L16.1393 5.0522C14.8947 3.90176 13.2085 3.00698 10.8985 3.00698C6.61824 3.00698 3.27059 6.40654 3.27059 10.6248C3.27059 14.8431 6.61824 18.2426 10.8985 18.2426C13.6749 18.2426 15.256 17.1439 16.269 16.1457C17.0904 15.3361 17.6309 14.1796 17.844 12.6L10.8985 12.6031Z" fill="#4285F4"/>
   </symbol>
   <symbol id="icon-7" width="122" height="26" viewBox="0 0 122 26" fill="none" xmlns="http://www.w3.org/2000/svg">
      <g clip-path="url(#clip0_2179_1384)">
      <path d="M43.0636 14.9752L42.3365 17.031H42.2759C42.1547 16.5674 41.9325 15.862 41.5689 15.0155L37.6706 5.24029H33.853V20.8201H36.3779V11.2062C36.3779 10.6015 36.3779 9.91626 36.3577 9.06975C36.3375 8.6465 36.2971 8.32402 36.2769 8.08215H36.3375C36.4587 8.68681 36.6 9.13022 36.701 9.41239L41.3871 20.7798H43.1646L47.8103 9.31161C47.9113 9.0496 48.0123 8.52557 48.1133 8.08215H48.1739C48.1133 9.23099 48.0729 10.2589 48.0527 10.8837V20.7597H50.7391V5.19998H47.063L43.0636 14.9752ZM53.2841 9.59378H55.91V20.7597H53.2841V9.59378ZM54.6173 4.8775C54.1729 4.8775 53.8093 5.03874 53.5063 5.32091C53.2034 5.60309 53.0418 5.96588 53.0418 6.40929C53.0418 6.83254 53.2034 7.19533 53.5063 7.4775C53.8093 7.75967 54.1729 7.90076 54.6173 7.90076C55.0616 7.90076 55.4454 7.73952 55.7282 7.4775C56.0312 7.19533 56.1928 6.83254 56.1928 6.40929C56.1928 5.98603 56.0312 5.62324 55.7282 5.32091C55.4656 5.03874 55.0818 4.8775 54.6173 4.8775ZM65.2216 9.49301C64.7368 9.39223 64.2318 9.33177 63.7471 9.33177C62.5553 9.33177 61.4646 9.59378 60.5557 10.1178C59.6467 10.6418 58.9196 11.3674 58.455 12.2744C57.9702 13.2015 57.7279 14.2698 57.7279 15.4992C57.7279 16.5674 57.9702 17.5147 58.4348 18.3814C58.8994 19.2279 59.5457 19.9132 60.4143 20.3767C61.2424 20.8403 62.212 21.0822 63.3027 21.0822C64.555 21.0822 65.6255 20.8201 66.4739 20.3364L66.4941 20.3163V17.8977L66.3931 17.9783C66.0093 18.2605 65.5649 18.5023 65.1206 18.6434C64.656 18.8046 64.2318 18.8853 63.8683 18.8853C62.8179 18.8853 61.9898 18.5829 61.404 17.9178C60.7981 17.2729 60.4951 16.386 60.4951 15.2775C60.4951 14.1287 60.7981 13.2217 61.4242 12.5566C62.0504 11.8915 62.8785 11.5488 63.8885 11.5488C64.7368 11.5488 65.6053 11.831 66.3931 12.3953L66.4941 12.476V9.91626L66.4739 9.89611C66.1305 9.75502 65.7467 9.59378 65.2216 9.49301ZM73.8868 9.41239C73.2404 9.41239 72.6345 9.61394 72.1093 10.0372C71.6649 10.4 71.362 10.924 71.0994 11.5488H71.0792V9.59378H68.4534V20.7597H71.0792V15.0558C71.0792 14.0884 71.2812 13.2822 71.7255 12.6977C72.1699 12.093 72.7355 11.7907 73.4222 11.7907C73.6646 11.7907 73.907 11.8511 74.21 11.8915C74.4928 11.9721 74.6947 12.0527 74.8361 12.1535L74.9371 12.2341V9.61394L74.8765 9.59378C74.6947 9.47285 74.3312 9.41239 73.8868 9.41239ZM81.0371 9.35192C79.1991 9.35192 77.7245 9.89611 76.6944 10.9643C75.6441 12.0325 75.1391 13.5039 75.1391 15.3581C75.1391 17.0915 75.6643 18.5023 76.6742 19.5302C77.6841 20.538 79.0577 21.062 80.7745 21.062C82.5722 21.062 84.0063 20.5178 85.0365 19.4294C86.0868 18.3411 86.5918 16.8899 86.5918 15.0961C86.5918 13.3225 86.107 11.9116 85.1173 10.8837C84.1679 9.8558 82.7742 9.35192 81.0371 9.35192ZM83.1378 17.938C82.653 18.5628 81.8855 18.8651 80.9361 18.8651C79.9868 18.8651 79.2192 18.5628 78.6739 17.8977C78.1285 17.2729 77.8659 16.3659 77.8659 15.217C77.8659 14.0279 78.1487 13.1209 78.6739 12.476C79.2192 11.831 79.9666 11.5085 80.9159 11.5085C81.8451 11.5085 82.5722 11.8108 83.0974 12.4356C83.6226 13.0604 83.9053 13.9674 83.9053 15.1566C83.8649 16.3659 83.6428 17.3132 83.1378 17.938ZM92.4494 14.2294C91.6212 13.8868 91.0961 13.6248 90.8537 13.4031C90.6517 13.2015 90.5507 12.9194 90.5507 12.5566C90.5507 12.2542 90.6719 11.9519 90.9749 11.7504C91.2779 11.5488 91.6212 11.448 92.1262 11.448C92.5706 11.448 93.0351 11.5287 93.4795 11.6496C93.9239 11.7705 94.3279 11.9519 94.651 12.1938L94.752 12.2744V9.81549L94.6914 9.79533C94.3884 9.6744 93.9845 9.55347 93.4997 9.4527C93.0149 9.37208 92.5706 9.33177 92.207 9.33177C90.9547 9.33177 89.9245 9.63409 89.1166 10.2992C88.3087 10.924 87.9249 11.7705 87.9249 12.7581C87.9249 13.2822 88.0057 13.7457 88.1875 14.1287C88.3692 14.5116 88.6318 14.8744 88.9954 15.1767C89.359 15.4589 89.8841 15.7814 90.6113 16.0837C91.2173 16.3457 91.6818 16.5473 91.9646 16.7085C92.2474 16.8698 92.4292 17.0511 92.5706 17.1922C92.6716 17.3535 92.7322 17.555 92.7322 17.817C92.7322 18.5628 92.1666 18.9256 91.0153 18.9256C90.5709 18.9256 90.1063 18.8449 89.561 18.6636C89.0156 18.4822 88.5106 18.2201 88.0865 17.9178L87.9855 17.8372V20.3969L88.0461 20.417C88.4298 20.5984 88.8944 20.7194 89.46 20.8605C90.0255 20.9612 90.5305 21.0418 90.9749 21.0418C92.3282 21.0418 93.4391 20.7395 94.2269 20.0744C95.0348 19.4294 95.459 18.6031 95.459 17.5349C95.459 16.7891 95.257 16.124 94.8126 15.6201C94.2269 15.1364 93.4997 14.6325 92.4494 14.2294ZM102.387 9.35192C100.549 9.35192 99.0745 9.89611 98.0444 10.9643C97.0143 12.0325 96.4891 13.5039 96.4891 15.3581C96.4891 17.0915 97.0143 18.5023 98.0242 19.5302C99.0341 20.538 100.408 21.062 102.125 21.062C103.922 21.062 105.356 20.5178 106.386 19.4294C107.437 18.3411 107.942 16.8899 107.942 15.0961C107.942 13.3225 107.457 11.9116 106.467 10.8837C105.518 9.8558 104.124 9.35192 102.387 9.35192ZM104.468 17.938C103.983 18.5628 103.215 18.8651 102.266 18.8651C101.296 18.8651 100.549 18.5628 100.004 17.8977C99.4583 17.2729 99.1957 16.3659 99.1957 15.217C99.1957 14.0279 99.4785 13.1209 100.004 12.476C100.549 11.831 101.296 11.5085 102.246 11.5085C103.155 11.5085 103.902 11.8108 104.427 12.4356C104.952 13.0604 105.235 13.9674 105.235 15.1566C105.235 16.3659 104.973 17.3132 104.468 17.938ZM121.98 11.7504V9.59378H119.334V6.28836L119.253 6.30851L116.748 7.05425L116.688 7.0744V9.59378H112.729V8.18293C112.729 7.53797 112.89 7.03409 113.173 6.71161C113.456 6.38913 113.88 6.22789 114.405 6.22789C114.769 6.22789 115.153 6.30851 115.577 6.48991L115.678 6.55037V4.27285L115.617 4.2527C115.254 4.13177 114.769 4.05115 114.143 4.05115C113.355 4.05115 112.668 4.23254 112.042 4.53487C111.416 4.8775 110.951 5.34107 110.608 5.96588C110.265 6.57053 110.083 7.2558 110.083 8.04185V9.59378H108.245V11.7302H110.083V20.7597H112.729V11.7504H116.688V17.4946C116.688 19.8527 117.799 21.0418 120.021 21.0418C120.384 21.0418 120.768 20.9814 121.131 20.9209C121.515 20.8403 121.798 20.7395 121.96 20.6589L121.98 20.6387V18.4822L121.879 18.5628C121.717 18.6636 121.576 18.7442 121.333 18.8046C121.131 18.8651 120.95 18.8853 120.808 18.8853C120.283 18.8853 119.92 18.7643 119.657 18.462C119.415 18.1798 119.293 17.7163 119.293 17.031V11.7504H121.98Z" fill="#737373"/>
      <path d="M0 0H12.3818V12.355H0V0Z" fill="#F25022"/>
      <path d="M13.6744 0H26.0562V12.355H13.6744V0Z" fill="#7FBA00"/>
      <path d="M0 13.645H12.3818V26H0V13.645Z" fill="#00A4EF"/>
      <path d="M13.6744 13.645H26.0562V26H13.6744V13.645Z" fill="#FFB900"/>
      </g>
      <defs>
      <clipPath id="clip0_2179_1384">
      <rect width="122" height="26" fill="white"/>
      </clipPath>
      </defs>
   </symbol>
   <symbol id="icon-8" width="112" height="26" viewBox="0 0 112 26" fill="none" xmlns="http://www.w3.org/2000/svg">
      <g clip-path="url(#clip0_2179_1390)">
      <path d="M39.8578 9.24784V10.7213H39.9032C40.4382 9.93242 41.3264 9.00334 43.2949 9.00334C44.8265 9.00334 46.0013 9.77594 46.5048 10.943H46.5503C46.9804 10.3529 47.4734 9.90634 48.0259 9.59013C48.6797 9.21524 49.407 9.00008 50.3231 9.00008C52.3966 9.00008 54.2323 10.3366 54.2323 13.7074V20.1001H51.0714V14.154C51.0714 12.4458 50.449 11.4581 49.1553 11.4581C48.2077 11.4581 47.5188 12.0514 47.2566 12.7816C47.1657 13.0326 47.1237 13.3749 47.1237 13.6617V20.1033H43.9628V13.9128C43.9628 12.4621 43.3649 11.4548 42.0886 11.4548C41.0676 11.4548 40.4277 12.2046 40.1655 12.8468C40.0536 13.1206 40.0186 13.4368 40.0186 13.7335V20.1001H36.8542V9.24784H39.8578ZM70.5475 9.24784V11.2951H70.6349C71.2153 9.7303 72.593 9.00334 73.8028 9.00334C74.107 9.00334 74.2748 9.02616 74.5196 9.0718V11.9144C74.2294 11.8753 73.9602 11.8362 73.5825 11.8362C72.2119 11.8362 71.2573 12.5795 71.016 13.7432C70.9636 13.9845 70.9461 14.2453 70.9461 14.5452V20.1033H67.7012V9.24784H70.5475ZM78.9253 5.65216V9.06854H81.6667V11.8329H78.9253V15.9111C78.9253 17.2313 79.2855 17.8703 80.3554 17.8703C80.859 17.8703 81.2296 17.8116 81.5513 17.7366L81.5932 20.0283C81.1632 20.1783 80.247 20.3413 79.317 20.3413C78.2225 20.3413 77.3099 19.986 76.7539 19.435C76.1176 18.8059 75.8239 17.7757 75.8239 16.3088V5.65216H78.9253ZM34.6513 20.1001H31.5044V5.65216H34.6513V20.1001ZM26.2595 16.224C26.2595 16.4229 26.242 16.6315 26.1826 16.8108C25.9378 17.5639 25.1021 18.1995 24.0601 18.1995C23.1895 18.1995 22.4971 17.7399 22.4971 16.7652C22.4971 15.2754 24.2594 14.8614 26.263 14.8712V16.224H26.2595ZM29.4029 13.6259C29.4029 11.1647 28.277 9.00334 24.4692 9.00334C22.5146 9.00334 20.9621 9.51515 20.116 9.97153L20.7349 11.947C21.5076 11.4907 22.7419 11.1158 23.9098 11.1158C25.8434 11.1125 26.1581 12.1361 26.1581 12.7914V12.9478C21.9447 12.9413 19.2838 14.3007 19.2838 17.0716C19.2838 18.7635 20.637 20.3478 22.9937 20.3478C24.4448 20.3478 25.6546 19.8099 26.3819 18.9461H26.4518C26.4518 18.9461 26.9343 20.8205 29.5848 20.1033C29.4449 19.3209 29.3994 18.4897 29.3994 17.4889V13.6259H29.4029ZM3.47562 5.65216C3.80081 7.18106 4.72391 11.621 4.72391 11.621C5.11203 13.4466 5.46869 15.3602 5.73793 16.8728H5.78688C6.04912 15.2656 6.46172 13.7432 6.9023 11.859L8.45828 5.65216H11.9024L13.357 12.0188C13.7382 13.7889 14.0424 15.1548 14.2836 16.801H14.3291C14.5913 15.1385 14.934 13.7172 15.3081 11.8981L16.7068 5.65216H20.0111L15.9165 20.1001C13.3081 20.6314 12.308 19.6535 11.9514 18.1017C11.5947 16.5468 10.8954 13.59 10.8954 13.59C10.5353 11.9699 10.2555 10.8289 10.0597 9.16634H10.0108C9.73105 10.8126 9.43733 11.9666 9.00375 13.5868L7.28692 20.1033C4.62251 20.5988 3.69941 19.8653 3.1889 17.8735C2.74833 16.1686 0 5.65542 0 5.65542H3.47562V5.65216ZM62.4563 16.224C62.4563 16.4229 62.4389 16.6315 62.3794 16.8108C62.1346 17.5639 61.299 18.1995 60.257 18.1995C59.3863 18.1995 58.694 17.7399 58.694 16.7652C58.694 15.2754 60.4563 14.8614 62.4598 14.8712V16.224H62.4563ZM65.5998 13.6259C65.5998 11.1647 64.4739 9.00334 60.6661 9.00334C58.7115 9.00334 57.159 9.51515 56.3128 9.97153L56.9317 11.947C57.7044 11.4907 58.9387 11.1158 60.1066 11.1158C62.0367 11.1125 62.3549 12.1361 62.3549 12.7914V12.9478C58.145 12.9413 55.4841 14.3007 55.4841 17.0716C55.4841 18.7635 56.8408 20.3478 59.194 20.3478C60.6416 20.3478 61.8549 19.8099 62.5787 18.9461H62.6521C62.6521 18.9461 63.1347 20.8205 65.7851 20.1033C65.6452 19.3209 65.5998 18.4897 65.5998 17.4889V13.6259Z" fill="#041E42"/>
      <path d="M94.4234 15.1241C94.7335 15.6517 94.7126 16.2406 94.3815 16.5096L88.6585 20.4276C88.0625 20.7646 87.1703 20.3561 86.6649 19.5017C86.156 18.6439 86.2467 17.6874 86.8427 17.3504L93.1791 14.4705C93.5764 14.3208 94.1132 14.5965 94.4234 15.1241ZM101.955 15.1241C102.269 14.5965 102.802 14.3242 103.2 14.4671L109.539 17.3469C110.135 17.6839 110.223 18.6405 109.717 19.4983C109.208 20.3527 108.313 20.7578 107.72 20.4242L101.997 16.5062C101.669 16.2406 101.645 15.6483 101.955 15.1241ZM98.1875 17.2482C98.8114 17.2482 99.3238 17.5614 99.3935 17.9733L100.01 24.7745C100.01 25.4485 99.2053 26 98.191 26C97.1803 26 96.3717 25.4485 96.3717 24.7745L96.9851 17.9733C97.0548 17.5614 97.5671 17.2482 98.1875 17.2482ZM101.997 9.49385L107.72 5.5724C108.313 5.2354 109.208 5.64048 109.717 6.4983C110.223 7.35611 110.135 8.31265 109.539 8.64965L103.2 11.5329C102.802 11.6758 102.265 11.4035 101.955 10.8759C101.645 10.3483 101.669 9.75936 101.997 9.49385ZM93.1791 11.5329L86.8427 8.64965C86.2502 8.31265 86.1595 7.35611 86.6649 6.4983C87.1703 5.64048 88.066 5.2354 88.6585 5.5724L94.3815 9.49385C94.7126 9.75596 94.7335 10.3483 94.4234 10.8759C94.1132 11.4035 93.5764 11.6758 93.1791 11.5329ZM96.9851 8.02671L96.3717 1.22545C96.3717 0.551453 97.1768 0 98.191 0C99.2053 0 100.01 0.551453 100.01 1.22545L99.3935 8.02671C99.3238 8.43519 98.8114 8.75177 98.1875 8.75177C97.5671 8.75177 97.0548 8.43519 96.9851 8.02671ZM111.265 20.4004V20.2302H111.421C111.474 20.2302 111.509 20.2642 111.509 20.3153C111.509 20.3629 111.474 20.4004 111.421 20.4004H111.265ZM111.136 20.7101C111.136 20.7272 111.15 20.7442 111.171 20.7442H111.237C111.254 20.7442 111.272 20.7272 111.272 20.7101V20.5161H111.38L111.467 20.7203C111.474 20.734 111.484 20.7442 111.498 20.7442H111.578C111.603 20.7442 111.62 20.7203 111.61 20.6965C111.578 20.6352 111.547 20.5706 111.516 20.5059C111.568 20.4889 111.648 20.4378 111.648 20.3153C111.648 20.1859 111.54 20.111 111.432 20.111H111.171C111.153 20.111 111.136 20.128 111.136 20.1451V20.7101ZM110.853 20.4276C110.853 20.1519 111.083 19.9272 111.366 19.9272C111.648 19.9272 111.878 20.1485 111.878 20.4276C111.878 20.7033 111.652 20.928 111.366 20.928C111.08 20.928 110.853 20.7033 110.853 20.4276ZM110.731 20.4276C110.731 20.768 111.014 21.0471 111.366 21.0471C111.714 21.0471 112 20.768 112 20.4276C112 20.0872 111.714 19.8081 111.366 19.8081C111.014 19.8081 110.731 20.0872 110.731 20.4276Z" fill="#FFC124"/>
      </g>
      <defs>
      <clipPath id="clip0_2179_1390">
      <rect width="112" height="26" fill="white"/>
      </clipPath>
      </defs>
   </symbol>
   <symbol id="icon-9" width="80" height="24" viewBox="0 0 80 24" fill="none" xmlns="http://www.w3.org/2000/svg">
      <g clip-path="url(#clip0_2179_1393)">
      <path d="M59.4911 23.2817L66.1627 15.8925L59.4911 8.5022H66.5304L69.8347 12.0919L73.0167 8.5022H79.8104L73.1704 15.862L79.9015 23.2817H72.8333L69.5589 19.6625L66.3154 23.2817H59.4911Z" fill="#FF6600"/>
      <path d="M59.491 5.18914H51.9348V8.50217H59.491V13.4952H51.9348V18.0782H59.491V23.2817H46.3811V0H59.491V5.18914Z" fill="#FF6600"/>
      <path d="M40.8508 0V9.528H40.7899C39.5656 8.1408 38.0358 7.65874 36.2609 7.65874C32.625 7.65874 29.8863 10.0951 28.9249 13.3162C27.8285 9.76697 25.001 7.59223 20.8083 7.59223C17.4035 7.59223 14.7148 9.09874 13.3117 11.5536V8.50251H6.27374V5.18983H13.9541V0H0V23.2821H6.27374V13.4952H12.527C12.3405 14.2142 12.241 14.9839 12.241 15.7961C12.241 20.6527 16.0049 24.0603 20.8083 24.0603C24.8477 24.0603 27.5096 22.1911 28.9176 18.7831H23.5412C22.8139 19.8069 22.2623 20.111 20.8083 20.111C19.1224 20.111 17.6689 18.661 17.6689 16.9423H28.6164C29.0911 20.7998 32.1395 24.1265 36.3228 24.1265C38.1273 24.1265 39.7795 23.2515 40.7899 21.7742H40.8508V23.2814H46.3812V0H40.8508ZM17.8435 13.5648C18.1924 12.0861 19.3558 11.1195 20.8083 11.1195C22.4073 11.1195 23.5117 12.0562 23.8021 13.5648C23.9245 13.5648 17.8435 13.5648 17.8435 13.5648ZM37.4946 19.7369C35.456 19.7369 34.1892 17.8646 34.1892 15.9096C34.1892 13.8199 35.2911 11.8104 37.4946 11.8104C39.7795 11.8104 40.6897 13.8199 40.6897 15.9096C40.6894 17.8913 39.7249 19.7369 37.4946 19.7369Z" fill="#652C8F"/>
      </g>
      <defs>
      <clipPath id="clip0_2179_1393">
      <rect width="80" height="24" fill="white"/>
      </clipPath>
      </defs>
   </symbol>
   <symbol id="icon-10" width="112" height="32" viewBox="0 0 112 32" fill="none" xmlns="http://www.w3.org/2000/svg">
      <g clip-path="url(#clip0_2586_2304)">
      <path fill-rule="evenodd" clip-rule="evenodd" d="M24.4508 4.87946H8.23621V13.7961H16.2146C16.4988 13.7961 16.7294 14.049 16.7294 14.3607V22.9904H24.9656V5.44513C24.9657 5.3709 24.9525 5.29736 24.9267 5.22874C24.9009 5.16011 24.863 5.09774 24.8152 5.0452C24.7673 4.99266 24.7105 4.95098 24.648 4.92254C24.5855 4.89409 24.5185 4.87946 24.4508 4.87946Z" fill="#8E75FF"/>
      <path opacity="0.405" fill-rule="evenodd" clip-rule="evenodd" d="M8.23535 4.87946V13.7961H0.628763C0.577655 13.796 0.527727 13.7792 0.485316 13.748C0.442906 13.7167 0.409925 13.6723 0.390562 13.6204C0.3712 13.5685 0.366327 13.5115 0.376564 13.4566C0.386801 13.4017 0.411685 13.3513 0.448057 13.312L8.23535 4.87946ZM17.1681 31.4322C17.1318 31.4712 17.0859 31.4977 17.0361 31.5082C16.9862 31.5187 16.9346 31.5129 16.8878 31.4914C16.841 31.4699 16.801 31.4337 16.7728 31.3874C16.7446 31.341 16.7296 31.2866 16.7295 31.2309V22.9904H24.9657L17.1681 31.4312V31.4322Z" fill="#8E75FF"/>
      <path opacity="0.405" d="M8.23535 13.7961H16.4725C16.6137 13.7961 16.7295 13.9221 16.7295 14.0779V22.9905H8.75112C8.61458 22.9905 8.48363 22.931 8.38708 22.8251C8.29053 22.7192 8.23629 22.5756 8.23629 22.4258V13.7961H8.23535Z" fill="#8E75FF"/>
      <path fill-rule="evenodd" clip-rule="evenodd" d="M108.02 4.31689C108.48 4.8165 109.023 5.06527 109.65 5.06527C110.297 5.06527 110.85 4.8165 111.31 4.31689C111.77 3.81727 112 3.22889 112 2.54863C112 1.8694 111.77 1.27482 111.31 0.764887C111.096 0.518992 110.838 0.324144 110.553 0.19253C110.267 0.0609165 109.96 -0.00463237 109.65 -1.62222e-05C109.023 -1.62222e-05 108.48 0.254952 108.02 0.763855C107.56 1.27482 107.33 1.86837 107.33 2.54966C107.33 3.22889 107.56 3.81727 108.02 4.31689ZM58.081 10.8325C58.081 10.8841 58.0415 10.9275 57.9935 10.9275H54.7605V17.5546C54.7605 18.1068 54.8885 18.5104 55.1426 18.7654C55.3967 19.0204 55.7695 19.1628 56.2589 19.1948C56.7069 19.2248 57.2527 19.2227 57.8975 19.1897L57.9887 19.1845C58.0005 19.1838 58.0123 19.1857 58.0233 19.1902C58.0344 19.1946 58.0445 19.2015 58.053 19.2104C58.0616 19.2193 58.0684 19.23 58.073 19.2419C58.0777 19.2538 58.0801 19.2666 58.08 19.2795V22.8211C58.0802 22.8446 58.0723 22.8674 58.0581 22.8849C58.0438 22.9024 58.0242 22.9136 58.0029 22.9161L57.9436 22.9233C55.4118 23.2155 53.6207 22.944 52.5723 22.1099C51.505 21.2604 50.9723 19.7419 50.9723 17.5546V10.9275H48.5026C48.4797 10.9275 48.4576 10.9175 48.4414 10.8997C48.4252 10.8818 48.416 10.8577 48.416 10.8325V7.07198C48.416 7.02037 48.4546 6.97702 48.5026 6.97702H50.9713V4.34785C50.9713 4.27147 51.0127 4.20334 51.0758 4.17237L54.6391 2.47224C54.6523 2.46567 54.6668 2.46285 54.6813 2.46402C54.6957 2.4652 54.7097 2.47033 54.7219 2.47897C54.734 2.4876 54.744 2.49944 54.751 2.51342C54.7579 2.52739 54.7615 2.54305 54.7615 2.55895V6.97702H57.9935C58.0405 6.97702 58.08 7.01934 58.08 7.07198V10.8325H58.081ZM64.9516 9.71766C65.3036 8.69779 65.8862 7.93289 66.6984 7.42295C67.4997 6.92257 68.4059 6.65934 69.328 6.65908C69.376 6.65908 69.4156 6.7014 69.4156 6.75508V11.0751C69.4155 11.0967 69.4114 11.1181 69.4034 11.1378C69.3953 11.1576 69.3836 11.1753 69.369 11.1897C69.3544 11.2042 69.3371 11.2152 69.3184 11.2219C69.2997 11.2287 69.2799 11.231 69.2603 11.2289C68.1676 11.1215 67.1859 11.3827 66.3163 12.0113C65.4062 12.6689 64.9516 13.7631 64.9516 15.2929V22.8119C64.9516 22.8244 64.9493 22.8368 64.9449 22.8484C64.9405 22.86 64.934 22.8705 64.9259 22.8794C64.9177 22.8882 64.9081 22.8952 64.8975 22.8999C64.8869 22.9046 64.8755 22.907 64.864 22.9068H61.248C61.2251 22.9068 61.2031 22.8968 61.1868 22.879C61.1706 22.8612 61.1615 22.837 61.1615 22.8119V7.07095C61.1615 7.01934 61.2 6.97598 61.248 6.97598H64.864C64.9111 6.97598 64.9506 7.01831 64.9506 7.07095V9.7156L64.9516 9.71766ZM82.8678 6.97702C82.8563 6.97688 82.845 6.97924 82.8344 6.98395C82.8238 6.98866 82.8141 6.99563 82.806 7.00446C82.7978 7.0133 82.7914 7.02381 82.787 7.0354C82.7825 7.04699 82.7803 7.05942 82.7803 7.07198V8.85779C81.6452 7.30631 80.049 6.53108 77.9925 6.53108C76.0349 6.53108 74.3549 7.34347 72.9553 8.96824C71.5549 10.593 70.8546 12.5842 70.8546 14.9419C70.8546 17.2996 71.5549 19.2908 72.9553 20.9156C74.3549 22.5404 76.0349 23.3528 77.9925 23.3528C80.049 23.3528 81.6443 22.5775 82.7803 21.0271V22.8119C82.7803 22.8635 82.8198 22.9068 82.8678 22.9068H86.4829C86.5309 22.9068 86.5704 22.8645 86.5704 22.8119V7.07095C86.5704 7.05839 86.5681 7.04596 86.5637 7.03437C86.5593 7.02278 86.5528 7.01226 86.5447 7.00343C86.5366 6.9946 86.5269 6.98763 86.5163 6.98291C86.5057 6.9782 86.4943 6.97585 86.4829 6.97598H82.8678V6.97702ZM75.7902 18.1915C76.5535 19.0204 77.5219 19.4343 78.6984 19.4343C79.873 19.4343 80.8471 19.0142 81.6207 18.175C82.3944 17.3368 82.7803 16.2591 82.7803 14.9419C82.7803 13.6248 82.3944 12.5471 81.6207 11.7079C80.8471 10.8697 79.873 10.4495 78.6974 10.4495C77.5229 10.4495 76.5535 10.8697 75.7892 11.7089C75.0269 12.5471 74.6438 13.6248 74.6438 14.9419C74.6438 16.2591 75.0259 17.3419 75.7902 18.1915ZM103.414 8.96824C102.013 7.34347 100.324 6.53108 98.3464 6.53108C96.2899 6.53108 94.704 7.30631 93.5878 8.85676V7.07198C93.5878 7.0468 93.5787 7.02264 93.5624 7.00483C93.5462 6.98702 93.5242 6.97702 93.5012 6.97702H89.8852C89.8623 6.97702 89.8402 6.98702 89.824 7.00483C89.8077 7.02264 89.7986 7.0468 89.7986 7.07198V29.183C89.7986 29.2356 89.8372 29.279 89.8852 29.279H93.5012C93.5483 29.279 93.5878 29.2356 93.5878 29.183V21.0271C94.704 22.5775 96.2899 23.3528 98.3464 23.3528C100.324 23.3528 102.013 22.5404 103.414 20.9156C104.813 19.2908 105.513 17.2996 105.513 14.9419C105.513 12.5842 104.813 10.593 103.414 8.96824ZM94.7332 18.1915C95.4975 19.0204 96.4659 19.4343 97.6415 19.4343C98.816 19.4343 99.7902 19.0142 100.564 18.175C101.337 17.3368 101.724 16.2591 101.724 14.9419C101.724 13.6248 101.337 12.5471 100.564 11.7079C99.7902 10.8697 98.816 10.4495 97.6415 10.4495C96.4659 10.4495 95.4975 10.8697 94.7332 11.7089C93.9699 12.5471 93.5878 13.6248 93.5878 14.9419C93.5878 16.2591 93.9699 17.3419 94.7332 18.1915ZM107.857 22.9068C107.834 22.9068 107.812 22.8968 107.796 22.879C107.78 22.8612 107.77 22.837 107.77 22.8119V7.07095C107.77 7.01934 107.809 6.97598 107.857 6.97598H111.473C111.521 6.97598 111.56 7.01831 111.56 7.07095V22.8129C111.56 22.8381 111.55 22.8622 111.534 22.88C111.518 22.8979 111.496 22.9079 111.473 22.9079H107.857V22.9068ZM40.2946 12.5368C39.7751 12.2715 39.5163 11.9257 39.5163 11.5014C39.5163 11.0978 39.6772 10.7788 40.001 10.5455C40.3238 10.3122 40.7304 10.1946 41.2198 10.1946C42.1582 10.1946 42.8669 10.592 43.3469 11.3858C43.3629 11.4127 43.387 11.4327 43.415 11.4421C43.4431 11.4515 43.4732 11.4499 43.5003 11.4374L46.6984 9.90244C46.7095 9.897 46.7193 9.88907 46.7274 9.87917C46.7355 9.86928 46.7416 9.85763 46.7454 9.84498C46.7491 9.83233 46.7503 9.81896 46.7491 9.80574C46.7478 9.79253 46.744 9.77975 46.7379 9.76824C46.7011 9.70094 46.6634 9.63418 46.625 9.56798C46.0782 8.63379 45.3695 7.93702 44.48 7.40747C43.5012 6.82321 42.4142 6.53108 41.2198 6.53108C39.633 6.53108 38.3069 6.98218 37.2386 7.8854C36.1723 8.7876 35.6386 10.0253 35.6386 11.5964C35.6386 12.6379 35.8984 13.503 36.417 14.1935C36.9182 14.8696 37.5711 15.3911 38.3116 15.7068C39.0551 16.0248 39.7996 16.2911 40.544 16.5027C41.2876 16.7153 41.92 16.9548 42.4386 17.2201C42.9572 17.4854 43.217 17.8302 43.217 18.2555C43.217 19.169 42.5412 19.6253 41.1906 19.6253C39.904 19.6253 39.0127 19.1091 38.5167 18.079C38.4968 18.0355 38.4626 18.0021 38.421 17.9854C38.3793 17.9687 38.3335 17.97 38.2927 17.9891L35.104 19.522C35.0934 19.5272 35.0838 19.5346 35.0758 19.5438C35.0679 19.5531 35.0617 19.564 35.0577 19.576C35.0536 19.5879 35.0518 19.6006 35.0523 19.6134C35.0529 19.6261 35.0557 19.6386 35.0607 19.65L35.0965 19.7295C36.2109 22.145 38.2419 23.3528 41.1906 23.3528C42.8744 23.3528 44.2796 22.912 45.4052 22.0315C46.5318 21.1489 47.0946 19.8906 47.0946 18.2555C47.0946 17.1716 46.8349 16.2694 46.3163 15.5468C45.8274 14.8495 45.1714 14.3149 44.4217 14.0026C43.692 13.6995 42.9465 13.4441 42.1892 13.2377C41.4447 13.0353 40.8132 12.802 40.2946 12.5357V12.5368Z" fill="#1D1B84"/>
      </g>
      <defs>
      <clipPath id="clip0_2586_2304">
      <rect width="112" height="32" fill="white"/>
      </clipPath>
      </defs>
   </symbol>
</svg>